HIERARCHY
ROOT hip
{
  OFFSET 0.0 0.0 0.0
  CHANNELS 6 Xposition Yposition Zposition Zrotation Yrotation Xrotation
  JOINT torso
  {
    OFFSET 0.0 0.0 0.0
    CHANNELS 3 Zrotation Xrotation Yrotation
    JOINT neck
    {
      OFFSET -8.600829999999974 327.7417449999999 60.895874000000276
      CHANNELS 3 Zrotation Xrotation Yrotation
      JOINT head
      {
        OFFSET 0.7211610000001087 266.848846 239.12060599999995
        CHANNELS 3 Zrotation Xrotation Yrotation
        End Site
        {
          OFFSET 0.0 0.0 0.0
        }
      }
    }
    JOINT left_collar
    {
      OFFSET -8.600829999999974 327.7417449999999 60.895874000000276
      CHANNELS 3 Zrotation Xrotation Yrotation
      JOINT left_upper_arm
      {
        OFFSET -122.29599000000002 -5.21875 31.800903999999946
        CHANNELS 3 Zrotation Xrotation Yrotation
        JOINT left_forearm
        {
          OFFSET -195.94708199999997 63.423126000000025 226.99352999999996
          CHANNELS 3 Zrotation Xrotation Yrotation
          JOINT left_hand
          {
            OFFSET -232.19226099999992 28.282164999999964 80.86950699999989
            CHANNELS 3 Zrotation Xrotation Yrotation
            End Site
            {
              OFFSET 0.0 0.0 0.0
            }
          }
        }
      }
    }
    JOINT right_collar
    {
      OFFSET -8.600829999999974 327.7417449999999 60.895874000000276
      CHANNELS 3 Zrotation Xrotation Yrotation
      JOINT right_upper_arm
      {
        OFFSET 168.41261300000002 -11.913361000000066 -9.389160000000174
        CHANNELS 3 Zrotation Xrotation Yrotation
        JOINT right_forearm
        {
          OFFSET 213.49279800000005 104.82293699999997 83.52258300000017
          CHANNELS 3 Zrotation Xrotation Yrotation
          JOINT right_hand
          {
            OFFSET 222.067185 62.005675999999994 -110.52026300000034
            CHANNELS 3 Zrotation Xrotation Yrotation
            End Site
            {
              OFFSET 0.0 0.0 0.0
            }
          }
        }
      }
    }
  }
}
MOTION
Frames: 16
Frame Time: 0.01
-359.1628016453797 174.04002879664955 343.2718025415903 1.3977433817556968 -1.5507213521392782 -20.024919671223508 -0.6325328937632507 6.086105517132526 0.24616370788077557 -6.0021016792768185 -1.7058861657308553 5.402037791800757 0.0 0.0 0.0 0.7056729365651793 -0.11720087989404301 6.185024794018572 43.180254866170934 44.21570643967834 0.03806227938597668 32.8153343694689 16.13613774248131 -22.5574816855633 0.0 0.0 0.0 -3.1853053197113796 -0.12307955951920198 0.5556770149668684 -76.69697062660515 23.58887437580284 -5.872840135625868 -34.50706109416349 -15.604763946821793 6.51035016024019 0.0 0.0 0.0
-359.1916090640423 174.0959379795723 343.4810898686189 1.3832324695024647 -1.5398157686912637 -20.014562576819326 -0.6255838327956584 6.085008079511853 0.2452097339731365 -6.0030496669256 -1.7055949701237596 5.40288701408192 0.0 0.0 0.0 0.7003683212982632 -0.11763262862317841 6.171566226825395 42.915660557578086 43.99954484257388 -0.01802634821939557 33.01893777095978 16.414380200144265 -23.228443292926528 0.0 0.0 0.0 -3.169890809246551 -0.12130422343608704 0.5656896275932098 -76.40721459687146 23.53004993266779 -5.806037228085345 -34.85996668427992 -15.685570835510054 7.12812523442419 0.0 0.0 0.0
-359.22040105763426 174.15119097832792 343.69416873453554 1.3706610938243167 -1.5265405543540425 -20.00575179185888 -0.6209315213816555 6.08200600586611 0.2445222611690777 -6.004091903084851 -1.706657630592415 5.403838177550726 0.0 0.0 0.0 0.6958219103152985 -0.11798952331267143 6.159736302481962 42.650205813402515 43.78100880040604 -0.07185311138041177 33.21389238764027 16.69706772313125 -23.92206544946699 0.0 0.0 0.0 -3.155138125339486 -0.11944106480940805 0.5769639265586758 -76.10935139094822 23.470067561178887 -5.734344565651289 -35.219756939425494 -15.763280554754095 7.764020077556311 0.0 0.0 0.0
-359.24931427575865 174.20587959298723 343.9111667237636 1.3600743143681586 -1.5108180800963773 -19.9986575641825 -0.6186979083932922 6.0770831397352865 0.2441172319682007 -6.005353264679694 -1.709289173890958 5.405006365723176 0.0 0.0 0.0 0.6920406659417044 -0.11827735728689659 6.149694552569581 42.38539036537923 43.5613415792973 -0.1230958872129925 33.39794740537697 16.982459870757467 -24.63643797058685 0.0 0.0 0.0 -3.1409298224432467 -0.11746828577127941 0.589663851004792 -75.80482658667768 23.4091264958128 -5.658291595519109 -35.58505072243299 -15.837276389110663 8.416372019461589 0.0 0.0 0.0
-359.2785072946004 174.26012120648812 344.13227152254586 1.351449196268889 -1.4926320017398744 -19.99339781257904 -0.6189274026454337 6.070269289535802 0.24400143997242651 -6.006938268766584 -1.7136735124573592 5.406487954912806 0.0 0.0 0.0 0.6890161143022596 -0.11850284153014988 6.141553085330599 42.12265338846647 43.341759415486095 -0.17146398747362893 33.56896980099087 17.268782787292178 -25.369664178697494 0.0 0.0 0.0 -3.1271369756582468 -0.1153671058451131 0.6039176737587504 -75.4951425707666 23.347440367901886 -5.578435741060753 -35.954424721722674 -15.90697916671968 9.083511494877062 0.0 0.0 0.0
-359.30816110287344 174.31405382291643 344.3577369688817 1.3446973970933735 -1.472030982527954 -19.990030781727846 -0.6215851184303121 6.061640278926657 0.24417228441549058 -6.008927327413653 -1.7199556879560718 5.40835714877225 0.0 0.0 0.0 0.6867250580351818 -0.11867322637858736 6.13537128249467 41.86335280468374 43.123432806058986 -0.2167020773051323 33.72497203369101 17.55425632525758 -26.119898540679063 0.0 0.0 0.0 -3.1136264183854676 -0.11312299749251525 0.619809090927949 -75.18183190773966 23.285235365067592 -5.495346481379811 -36.32642594133371 -15.971852384041513 9.7637864567423 0.0 0.0 0.0
-359.33847816295145 174.36782947975234 344.5878865997338 1.3396711859869632 -1.4491300781950758 -19.98855054872783 -0.6265590202546122 6.051316255631325 0.24461797647849665 -6.011374231371276 -1.7282351368937958 5.410663630447372 0.0 0.0 0.0 0.6851305864711206 -0.11879595969988138 6.131152702625342 41.60874805743881 42.90746981184546 -0.25859235366604433 33.864135069071516 17.83712051979768 -26.885379761619728 0.0 0.0 0.0 -3.1002678527999814 -0.11072670136701407 0.637370428949743 -74.86643105056206 23.222747595866668 -5.40959131483911 -36.69958443545398 -16.031406313761014 10.45558446763209 0.0 0.0 0.0
-359.3696800068936 174.42160614471737 344.8231143883684 1.3361724058446292 -1.4241096781060276 -19.98888573434775 -0.6336656963060403 6.039458284105591 0.24531816689817504 -6.014305038901643 -1.7385602703445773 5.413431494245705 0.0 0.0 0.0 0.684183405051277 -0.11887839577168187 6.1288445903645625 41.35998624883544 42.69490160731161 -0.2969554759814728 33.98482679128291 18.115660749454833 -27.664458395540443 0.0 0.0 0.0 -3.086940521607975 -0.10817496536107846 0.656578364249044 -74.55045511110234 23.160219768872032 -5.321723953994601 -37.072426217969124 -16.085201151631466 11.157352107234507 0.0 0.0 0.0
-359.4020034513446 174.47553831443756 345.0638825154652 1.33396371425415 -1.3972120463817448 -19.990901512618354 -0.6426592677824013 6.026263363359061 0.24624494104933642 -6.017718442328545 -1.750924626654646 5.416659525126946 0.0 0.0 0.0 0.6838234867961905 -0.11892756299895244 6.128340161979852 41.1180914269011 42.486670410579855 -0.331650750530159 34.08561599897593 18.388230995279805 -28.455618351804034 0.0 0.0 0.0 -3.0735391708467037 -0.10547097252041303 0.6773523600368058 -74.23537433033513 23.097897336269085 -5.232274955097112 -37.443486249219646 -16.13284926765203 11.867611482470073 0.0 0.0 0.0
-359.4356956276088 174.52976663802235 345.3107162018289 1.3327813337138086 -1.3687356738709922 -19.994404747773054 -0.6532427764611834 6.011958135787626 0.24736411083520612 -6.021587568523844 -1.765264802563706 5.420322789254732 0.0 0.0 0.0 0.6839820263101476 -0.11894999216049348 6.129483587638073 40.88395674516451 42.28361983935131 -0.3625760372185682 34.16528225642408 18.653274700141854 -29.257492015411277 0.0 0.0 0.0 -3.0599790895312857 -0.10262444623797984 0.6995558229862034 -73.92259279519389 23.036024278829633 -5.141744858726566 -37.811321344515754 -16.17401662083258 12.584973763956805 0.0 0.0 0.0
-359.4710081121236 174.58440698685902 345.5641958261905 1.3323485019865584 -1.3390278130224973 -19.999151843386386 -0.6650812873829403 5.996791668150449 0.24863672178224983 -6.025863055157922 -1.7814602963102328 5.424375395314268 0.0 0.0 0.0 0.6845836526660642 -0.11895160092965547 6.132077348378928 40.658339189825796 42.08648766908945 -0.38966778177311073 34.22282189772443 18.909342825644988 -30.06886901581953 0.0 0.0 0.0 -3.0462000739062414 -0.09965144459335326 0.7229997867557898 -73.61342984760572 22.974838723423694 -5.050599806777897 -38.174522778167926 -16.208423385172825 13.308149772923448 0.0 0.0 0.0
-359.508190501467 174.63953947067372 345.82494671847155 1.3323888339150916 -1.3084756806583784 -20.00485869628125 -0.6778159012164129 5.981027756993603 0.2500206884385833 -6.030477149805232 -1.7993353113319095 5.428754200232286 0.0 0.0 0.0 0.6855488343918795 -0.11893762592930697 6.1358914454579905 40.44185657537077 41.89590091974325 -0.41290148484065897 34.2574504804152 19.155108798906276 -30.88869892909666 0.0 0.0 0.0 -3.032169221057802 -0.09657387576782328 0.7474487677504594 -73.30910452354578 22.914568586152292 -4.9592695063567 -38.53172830712922 -16.235843831438718 14.035957697441834 0.0 0.0 0.0
-359.5474838037135 174.69519794999368 346.0936271179644 1.3326388792678086 -1.277496839491639 -20.011212038840462 -0.6910778954141534 5.964937206554957 0.25147247165496267 -6.035348517889771 -1.818662480670375 5.433383176984178 0.0 0.0 0.0 0.6867963926211534 -0.11891259112240085 6.140673815680363 40.234986541005256 41.71237316398927 -0.4322928059736801 34.26860197506923 19.38938013424165 -31.716088364778084 0.0 0.0 0.0 -3.0178825013644355 -0.09341877952896417 0.7726283420136203 -73.01072324377051 22.855427423212685 -4.868147334801318 -38.88163333676607 -16.256105522302395 14.767328035438625 0.0 0.0 0.0
-359.58911401683343 174.7513606138432 346.37091480985646 1.3328592737325582 -1.246529207774863 -20.01788143830246 -0.7045022962570819 5.948790449009767 0.25294871709696337 -6.040387420930309 -1.839168387471512 5.438178139060175 0.0 0.0 0.0 0.6882460312482502 -0.11888030074189385 6.146161271412207 40.0380673290835 41.53630392824791 -0.4478993682348737 34.255924969377226 19.611106607816936 -32.550292989332384 0.0 0.0 0.0 -3.0033650926867583 -0.0902174247998704 0.7982339698161904 -72.71927085137897 22.79761064988056 -4.77759231418091 -39.22300099714825 -16.269087903269334 15.501305861465061 0.0 0.0 0.0
-359.6332862389411 174.807942179054 346.65749292989767 1.3328440145139209 -1.2160210375917822 -20.024531281400574 -0.7177403037838235 5.9328507601044125 0.25440778395944924 -6.045500931680887 -1.8605406782941336 5.443051519688548 0.0 0.0 0.0 0.6898207949432142 -0.11884384568577334 6.152090321829393 39.85130018414769 41.36798004293413 -0.45982318488583146 34.219276159274024 19.81938495806899 -33.39070510546697 0.0 0.0 0.0 -2.988670488108896 -0.08700427253412808 0.8239406252635424 -72.43560495706885 22.74129226013546 -4.687932614802612 -39.554670969440345 -16.274720397870652 16.23705050949616 0.0 0.0 0.0
-359.68017960953904 174.86478822211885 346.95403538907476 1.3324275335720759 -1.1864210919490323 -20.030832174274835 -0.7304701257509028 5.917368207604422 0.25581110474685137 -6.050597879526757 -1.8824364963747282 5.4479169269109695 0.0 0.0 0.0 0.6914493730692317 -0.11880561386471213 6.158207312374912 39.67475326811734 41.2075787879816 -0.4682134889266589 34.1587113928508 20.0134601778811 -34.23683745928017 0.0 0.0 0.0 -2.973878420087816 -0.08381584978846585 0.8494128404313689 -72.16045341754426 22.686622149302313 -4.599470169827535 -39.875566972733644 -16.272980133242935 16.97383276367651 0.0 0.0 0.0
